<svg width="64" height="64" viewBox="0 0 64 64" fill="none" xmlns="http://www.w3.org/2000/svg">
<path fill-rule="evenodd" clip-rule="evenodd" d="M16.0591 41.0949C15.6959 41.0949 15.4014 40.8003 15.4014 40.4372L15.4014 38.1899C15.4014 37.8268 15.6959 37.5322 16.0591 37.5322C16.4224 37.5322 16.7169 37.8268 16.7169 38.19V40.4372C16.7169 40.8003 16.4224 41.0949 16.0591 41.0949Z" fill="#7C161C"/>
<path fill-rule="evenodd" clip-rule="evenodd" d="M15.7828 55.9671C15.4194 55.9671 15.125 55.6736 15.125 55.3093L15.1251 53.0632C15.1251 52.7001 15.4194 52.4055 15.7827 52.4055C16.146 52.4054 16.4403 52.7001 16.4403 53.0632L16.4404 55.3093C16.4404 55.6736 16.146 55.9671 15.7828 55.9671Z" fill="#7C161C"/>
<path fill-rule="evenodd" clip-rule="evenodd" d="M15.605 53.7256C15.5332 53.7256 15.4618 53.7233 15.3906 53.7199C13.7497 53.6377 12.0059 52.5735 12.0325 49.833C12.0361 49.4721 12.3299 49.1821 12.6901 49.1821C12.6924 49.182 12.6944 49.1821 12.6966 49.1821C13.0598 49.1855 13.3514 49.4824 13.3478 49.8455C13.3272 51.9808 14.6602 52.3656 15.4566 52.4067C16.7446 52.4707 18.2688 51.6645 18.3758 50.4884C18.3766 50.4792 18.3776 50.4712 18.3787 50.4622C18.6299 48.5437 16.2368 47.5172 15.4975 47.2477C14.4965 46.8845 11.4499 45.777 12.1838 42.961C12.8374 40.4534 14.9342 39.5754 16.6064 39.8208C18.2068 40.0549 19.8909 41.3819 19.8063 43.7421C19.7932 44.1041 19.4848 44.3907 19.1254 44.3747C18.7622 44.3622 18.4786 44.0573 18.4916 43.6942C18.5476 42.1354 17.4893 41.279 16.4157 41.1226C15.352 40.9673 13.9393 41.4412 13.4568 43.2922C13.1541 44.4535 13.8988 45.2677 15.947 46.0122C16.9178 46.365 20.0522 47.7399 19.6846 50.6208C19.5031 52.5221 17.4736 53.7256 15.605 53.7256Z" fill="#7C161C"/>
<path fill-rule="evenodd" clip-rule="evenodd" d="M15.9203 35.4221C9.67432 35.4221 4.5928 40.5036 4.5928 46.7497C4.59287 52.9958 9.67432 58.0772 15.9203 58.0772C22.1664 58.0772 27.248 52.9958 27.248 46.7497C27.248 40.5036 22.1663 35.4221 15.9203 35.4221ZM15.9203 59.3926C8.94901 59.3926 3.27734 53.7209 3.27734 46.7497C3.27734 39.7785 8.94897 34.1067 15.9203 34.1067C22.8917 34.1067 28.5633 39.7785 28.5633 46.7497C28.5634 53.7208 22.8917 59.3927 15.9203 59.3926Z" fill="#7C161C"/>
<path fill-rule="evenodd" clip-rule="evenodd" d="M46.0328 59.3926C45.6695 59.3926 45.375 59.0981 45.375 58.7349V49.7539C45.375 49.3909 45.6695 49.094 46.0327 49.094C46.396 49.094 46.6903 49.3863 46.6903 49.7494L46.6904 58.7349C46.6904 59.098 46.396 59.3927 46.0328 59.3926Z" fill="#7C161C"/>
<path fill-rule="evenodd" clip-rule="evenodd" d="M36.9946 59.3913C36.6314 59.3913 36.3369 59.0967 36.3369 58.7337L36.337 55.6665C36.337 55.3034 36.6314 55.0088 36.9946 55.0088C37.3579 55.0088 37.6524 55.3034 37.6524 55.6665V58.7336C37.6524 59.0967 37.3579 59.3914 36.9946 59.3913Z" fill="#7C161C"/>
<path fill-rule="evenodd" clip-rule="evenodd" d="M59.1293 59.3926H32.9408C32.0624 59.3926 31.3477 58.6779 31.3477 57.7998L31.3477 54.1811C31.3477 51.8197 32.834 49.6821 35.046 48.8634C35.0538 48.8599 35.0616 48.8576 35.0695 48.8554L41.7438 46.6675V44.3471C41.7438 43.9829 42.0382 43.6895 42.4015 43.6895C42.7647 43.6894 43.0591 43.983 43.0591 44.3472L43.0591 47.1437C43.0591 47.4279 42.8764 47.6804 42.6062 47.7683L35.4916 50.1011C33.7992 50.7326 32.663 52.3712 32.663 54.1811L32.663 57.7997C32.663 57.9528 32.7877 58.0772 32.9408 58.0772L59.1293 58.0772C59.2824 58.0772 59.4068 57.9528 59.4068 57.7998L59.4069 54.1811C59.4069 52.3712 58.2706 50.7326 56.5784 50.1L49.4644 47.7659C49.1949 47.678 49.0122 47.4257 49.0122 47.1414L49.0123 44.4157C49.0123 44.0525 49.3068 43.758 49.67 43.758C50.0331 43.7579 50.3277 44.0526 50.3277 44.4157L50.3277 46.6652L56.9998 48.8542C57.0077 48.8565 57.0157 48.8599 57.0237 48.8622C59.2356 49.6821 60.7223 51.8186 60.7223 54.1811V57.7997C60.7223 58.6778 60.0075 59.3927 59.1293 59.3926Z" fill="#7C161C"/>
<path fill-rule="evenodd" clip-rule="evenodd" d="M55.0757 59.3913C54.7126 59.3913 54.418 59.0967 54.418 58.7337L54.418 55.6665C54.418 55.3034 54.7126 55.0088 55.0757 55.0088C55.4388 55.0088 55.7334 55.3034 55.7334 55.6665L55.7335 58.7336C55.7335 59.0967 55.4388 59.3914 55.0757 59.3913Z" fill="#7C161C"/>
<path fill-rule="evenodd" clip-rule="evenodd" d="M49.6154 52.8691C49.3848 52.8691 49.1518 52.7984 48.9498 52.6534L45.6525 50.2874C45.6441 50.2817 45.6358 50.2748 45.6277 50.268L42.0166 47.677C41.7214 47.4658 41.6538 47.0547 41.8656 46.7589C42.0773 46.4643 42.4883 46.3969 42.7835 46.6082L46.4159 49.2151C46.4244 49.2208 46.4327 49.2277 46.4408 49.2334L49.5937 51.4954L53.0468 47.9454C53.3002 47.685 53.7159 47.6793 53.9762 47.9328C54.2366 48.1851 54.2423 48.602 53.9899 48.8623L50.4307 52.5209C50.208 52.7504 49.9122 52.8692 49.6154 52.8691Z" fill="#7C161C"/>
<path fill-rule="evenodd" clip-rule="evenodd" d="M42.4561 52.8692C42.1582 52.8692 41.863 52.7505 41.64 52.521L38.0818 48.8624C37.8285 48.602 37.8342 48.1852 38.0947 47.9329C38.3552 47.6793 38.7713 47.6851 39.0247 47.9455L42.4781 51.4955L45.6501 49.2197C45.6573 49.2141 45.6644 49.2095 45.6718 49.205L49.287 46.6083C49.5816 46.3959 49.9927 46.4633 50.2051 46.759C50.4164 47.0536 50.3489 47.4647 50.0543 47.6771L46.4207 50.2863C46.4135 50.2909 46.4061 50.2966 46.3986 50.3012L43.1218 52.6534C42.9196 52.7973 42.687 52.8693 42.4561 52.8692Z" fill="#7C161C"/>
<path fill-rule="evenodd" clip-rule="evenodd" d="M49.6701 46.4086C49.307 46.4086 49.0123 46.114 49.0123 45.7509C49.0124 45.3877 49.3069 45.0932 49.67 45.0932L52.8057 45.0932C53.5742 45.0932 54.1999 44.5211 54.1999 43.8177L54.1999 32.4136C54.1999 32.111 54.1725 31.8427 54.1165 31.5938C53.6826 29.6525 51.9675 29.3431 51.8944 29.3305C51.7586 29.3077 51.6284 29.2415 51.5325 29.1445C48.0258 25.6011 44.4666 26.244 42.0981 27.4065C41.0995 27.8963 40.1901 28.5723 39.4683 29.3591C38.4378 30.4839 37.8701 31.9364 37.8701 33.4471V43.8154C37.8701 44.5188 38.4961 45.092 39.2655 45.092L42.4016 45.092C42.7648 45.092 43.0592 45.3866 43.0592 45.7497C43.0592 46.1128 42.7648 46.4075 42.4016 46.4075L39.2655 46.4074C37.7708 46.4074 36.5547 45.245 36.5547 43.8154V33.447C36.5547 31.6063 37.2449 29.8387 38.4984 28.4707C39.3298 27.564 40.3742 26.7864 41.5184 26.2246C43.7501 25.1295 48.1011 23.9305 52.3283 28.0802C52.9895 28.2502 54.869 28.9332 55.4 31.306C55.4777 31.6509 55.5154 32.0128 55.5154 32.4136V43.8176C55.5154 45.2462 54.3004 46.4087 52.8057 46.4087L49.6701 46.4086Z" fill="#7C161C"/>
<path fill-rule="evenodd" clip-rule="evenodd" d="M40.2754 39.1069C40.4286 42.2688 43.0876 44.9374 46.0857 44.9374C49.0819 44.9374 51.7391 42.2723 51.8955 39.1138L51.8956 35.2713C50.4568 35.1674 49.5079 34.2254 49.0123 33.5631C45.5021 35.9336 41.8248 35.6893 40.1932 35.4152L40.2754 39.1069ZM46.0857 46.2529C42.3414 46.2529 39.1451 43.0716 38.961 39.1606C38.9607 39.156 38.9606 39.1504 38.9603 39.1446L38.8595 34.6125C38.8549 34.4024 38.9504 34.2037 39.1167 34.0758C39.2831 33.9478 39.5001 33.9079 39.7014 33.9662C39.7486 33.9798 44.5854 35.3205 48.7923 32.1015C48.9489 31.9816 49.1516 31.9382 49.3434 31.9838C49.5353 32.0284 49.6963 32.1575 49.7831 32.3344C49.8196 32.4075 50.7171 34.1615 52.4733 33.9457C52.6595 33.9217 52.8479 33.9799 52.9895 34.1055C53.13 34.23 53.211 34.4092 53.211 34.5976L53.211 39.1298C53.211 39.1412 53.211 39.1504 53.211 39.1606C53.026 43.0716 49.8299 46.2529 46.0857 46.2529Z" fill="#7C161C"/>
<path fill-rule="evenodd" clip-rule="evenodd" d="M15.9204 35.4223C15.5572 35.4223 15.2627 35.1278 15.2627 34.7646V23.1151C15.2627 22.0314 16.1441 21.1511 17.2274 21.1511L25.4939 21.151C25.852 21.151 26.1434 20.8599 26.1434 20.5013L26.1434 6.57256C26.1434 5.48889 27.0247 4.60742 28.1081 4.60742H36.4692C37.5526 4.60742 38.4339 5.48893 38.4339 6.5726L38.4339 16.2124C38.4339 16.5698 38.7253 16.8622 39.0833 16.8622H44.7266C45.81 16.8622 46.6913 17.7426 46.6913 18.8262L46.6914 25.8396C46.6914 26.2039 46.3969 26.4974 46.0337 26.4974C45.6704 26.4974 45.376 26.2039 45.376 25.8397L45.376 18.8262C45.376 18.4688 45.0846 18.1776 44.7266 18.1776H39.0833C38 18.1776 37.1186 17.2961 37.1186 16.2124L37.1186 6.57256C37.1186 6.21402 36.8273 5.92288 36.4691 5.92288H28.1082C27.7501 5.92288 27.4589 6.21402 27.4589 6.5726L27.4589 20.5013C27.4589 21.585 26.5773 22.4665 25.4939 22.4665L17.2275 22.4665C16.8695 22.4665 16.578 22.7577 16.578 23.1151V34.7646C16.578 35.1278 16.2837 35.4224 15.9204 35.4223Z" fill="#7C161C"/>
</svg>
