<svg width="66" height="32" viewBox="0 0 66 32" fill="none" xmlns="http://www.w3.org/2000/svg">
<path d="M0 2.98291V32H5.09091V0H2.96901C1.32899 0 0 1.33538 0 2.98291Z" fill="white"/>
<path d="M48.9881 0H42.4179L28.772 31.7934V0H23.6808V19.5309H10.7024C9.06259 19.5309 7.7334 20.8668 7.7334 22.5142V24.6459H23.6808V29.0171C23.6808 30.6647 25.0103 32 26.6501 32H28.6834H28.772H34.2464L37.4027 24.6459H45.2049C46.8447 24.6459 48.1738 23.3106 48.1738 21.663V19.5309H39.5981L45.8505 4.96391L57.9139 29.6555C58.8884 31.1205 60.5261 32 62.2801 32H65.0362L48.9881 0Z" fill="white"/>
</svg>
